<?xml version="1.0" standalone="no"?>
<!DOCTYPE svg PUBLIC "-//W3C//DTD SVG 20010904//EN"
 "http://www.w3.org/TR/2001/REC-SVG-20010904/DTD/svg10.dtd">
<svg version="1.0" xmlns="http://www.w3.org/2000/svg"
 width="1024.000000pt" height="1024.000000pt" viewBox="0 0 1024.000000 1024.000000"
 preserveAspectRatio="xMidYMid meet">

<g transform="translate(0.000000,1024.000000) scale(0.100000,-0.100000)"
fill="#000000" stroke="none">
<path d="M0 5120 l0 -5120 5120 0 5120 0 0 5120 0 5120 -5120 0 -5120 0 0
-5120z m5176 3185 c87 -25 148 -110 148 -205 1 -142 -131 -252 -270 -226 -52
10 -126 86 -143 148 -17 60 -10 134 16 184 30 60 110 108 184 113 8 1 38 -6
65 -14z m524 -90 c361 -74 534 -133 839 -286 214 -107 368 -202 383 -235 9
-20 7 -39 -11 -95 -24 -75 -24 -75 -99 -48 -23 9 -223 125 -272 159 -26 17
-125 60 -270 115 -47 18 -119 47 -160 64 -170 70 -361 145 -461 179 -123 43
-135 51 -148 101 -27 100 -27 95 5 87 16 -4 103 -23 194 -41z m-956 8 c-4 -16
-14 -48 -23 -73 -15 -41 -20 -46 -66 -58 -143 -39 -236 -72 -670 -240 -229
-89 -498 -207 -551 -242 -45 -30 -102 -52 -114 -45 -5 3 -18 35 -30 71 -26 78
-45 57 171 189 210 128 415 218 669 294 219 66 292 83 465 111 157 26 157 26
149 -7z m1176 -358 c185 -73 475 -197 530 -225 25 -13 75 -35 111 -49 37 -14
127 -55 202 -91 121 -58 136 -68 141 -94 7 -34 8 -116 1 -116 -2 0 -88 41
-190 90 -102 50 -188 90 -191 90 -3 0 -67 30 -142 66 -161 77 -346 154 -555
230 -154 56 -370 153 -364 163 1 3 12 27 24 52 l21 46 139 -54 c76 -30 199
-78 273 -108z m-1171 107 c10 -32 10 -46 2 -56 -13 -15 -160 -74 -411 -164
-199 -72 -276 -103 -440 -177 -69 -32 -163 -74 -210 -95 -47 -21 -128 -59
-180 -85 -91 -45 -163 -75 -181 -75 -4 0 -8 29 -8 63 l1 64 136 61 c76 33 173
75 217 92 44 18 136 58 205 89 252 117 813 333 845 327 6 -2 16 -21 24 -44z
m-1939 -84 c116 -35 243 -145 299 -259 62 -126 64 -303 7 -433 -46 -103 -160
-203 -282 -247 -85 -31 -227 -31 -309 -1 -72 27 -180 99 -216 144 -98 127
-130 276 -94 436 43 187 221 354 398 371 74 8 149 3 197 -11z m4858 -3 c88
-21 157 -59 216 -119 110 -110 156 -217 156 -361 0 -198 -105 -361 -286 -447
-232 -110 -532 0 -643 236 -52 109 -62 199 -36 321 21 99 59 167 131 234 141
133 290 176 462 136z m-2288 -536 c152 -14 358 -63 501 -119 118 -47 332 -155
350 -176 10 -12 -152 -14 -1115 -14 -1103 0 -1126 0 -1117 19 26 47 335 181
543 235 271 70 493 84 838 55z m-1912 -484 l52 -39 -25 -13 c-14 -8 -25 -17
-25 -22 0 -4 -11 -14 -25 -21 -23 -12 -30 -9 -117 57 -51 39 -109 84 -128 101
l-35 30 34 49 34 50 91 -76 c50 -42 115 -94 144 -116z m3567 141 l40 -34 -20
-22 c-24 -27 -256 -213 -259 -208 -1 2 -13 19 -26 38 -13 19 -29 38 -35 43 -6
4 1 16 20 30 16 12 73 59 125 104 52 45 100 82 105 82 6 0 28 -15 50 -33z
m-577 -176 c19 -14 45 -44 59 -67 l24 -42 0 -650 c0 -728 5 -675 -76 -750 -59
-55 -133 -88 -209 -96 -86 -8 -1719 -12 -2076 -5 -278 5 -297 7 -336 27 -53
28 -117 101 -132 150 -7 26 -12 245 -13 690 l-3 651 28 42 c55 84 -79 77 1393
76 l1308 -1 33 -25z m-3730 -584 c-2 -277 -5 -506 -8 -508 -3 -2 -31 -2 -62 0
l-58 4 0 498 0 499 58 4 c31 2 61 4 65 5 4 1 7 -225 5 -502z m4895 176 c4
-173 7 -397 7 -497 l0 -181 -65 0 -64 0 -3 440 c-2 243 -1 466 0 497 l4 57 57
-1 58 0 6 -315z m-4094 -384 c1 -359 5 -664 8 -678 12 -51 43 -98 99 -150 32
-29 68 -57 81 -63 22 -10 21 -11 -20 -37 -59 -37 -153 -142 -168 -187 -9 -29
-11 -154 -7 -538 3 -275 2 -511 -1 -524 -7 -24 -7 -24 -43 20 -20 24 -65 79
-101 121 -35 43 -77 104 -93 135 -17 32 -52 97 -77 144 -140 258 -233 708
-200 969 9 72 10 116 1 180 -16 118 -14 151 10 265 48 230 198 593 325 785 55
83 161 210 176 210 5 0 9 -294 10 -652z m4541 637 c0 -8 -4 -15 -10 -15 -5 0
-10 7 -10 15 0 8 5 15 10 15 6 0 10 -7 10 -15z m-1215 -167 c132 -174 295
-538 341 -766 23 -114 25 -140 19 -253 -5 -81 -3 -175 5 -260 15 -155 7 -280
-35 -501 -30 -164 -84 -309 -192 -518 -80 -155 -105 -191 -197 -290 -45 -49
-60 -60 -67 -49 -5 8 -9 235 -9 505 l0 491 -34 69 c-40 80 -89 131 -165 172
-54 30 -55 35 -10 46 37 8 120 86 160 148 l34 53 1 610 c0 335 4 632 9 658 l7
48 29 -33 c16 -18 63 -77 104 -130z m-4516 -92 c20 -41 46 -72 85 -104 13 -10
16 -10 17 0 1 7 7 -18 14 -57 15 -77 10 -130 -25 -250 -27 -91 -70 -288 -70
-317 0 -13 -20 -64 -46 -114 -39 -77 -47 -102 -53 -170 -8 -103 3 -171 41
-258 28 -63 33 -86 39 -196 7 -127 17 -192 70 -474 29 -151 62 -515 49 -535
-3 -5 -21 -16 -40 -26 -19 -9 -43 -24 -52 -32 -27 -24 -45 -9 -83 72 -75 160
-171 511 -209 760 -40 268 -46 697 -12 935 22 157 108 489 161 624 42 105 81
186 90 186 2 0 13 -20 24 -44z m5639 -103 c28 -60 62 -148 77 -198 15 -49 35
-116 46 -148 20 -65 64 -284 80 -404 15 -120 12 -539 -6 -679 -49 -382 -108
-620 -237 -945 l-31 -78 -23 18 c-12 10 -43 25 -68 35 l-45 17 0 129 c-1 127
38 417 85 640 8 41 19 143 24 226 7 136 12 159 38 220 49 114 55 140 50 233
-4 76 -9 95 -45 166 -24 48 -43 102 -47 135 -8 63 -44 210 -87 355 -25 85 -29
111 -24 170 10 111 12 118 40 111 19 -5 31 3 64 40 23 26 41 51 41 55 0 29 23
-5 68 -98z m-5287 -745 c51 -15 114 -70 141 -121 16 -32 19 -52 15 -93 -13
-122 -90 -196 -208 -198 -116 -2 -203 90 -202 214 1 96 49 163 139 195 49 18
67 18 115 3z m5005 -20 c70 -48 96 -97 92 -178 -6 -116 -72 -196 -172 -207
-155 -18 -274 130 -225 278 30 90 98 138 195 139 53 0 68 -4 110 -32z m-1313
-533 c70 -35 125 -86 152 -140 19 -38 20 -60 17 -525 -1 -267 -5 -507 -8 -533
-7 -59 -49 -112 -109 -137 -37 -16 -131 -17 -1315 -16 l-1275 2 -42 22 c-40
21 -81 66 -98 107 -11 26 -15 1064 -4 1092 20 53 114 121 203 148 29 9 350 11
1230 11 l1191 -1 58 -30z m-3654 -643 l1 -423 -57 6 c-32 4 -61 10 -64 14 -4
3 -10 232 -14 508 l-7 501 39 -5 c21 -2 49 0 63 5 l25 9 6 -96 c4 -53 7 -286
8 -519z m4858 603 c31 0 33 -2 40 -45 10 -63 9 -589 -1 -801 l-8 -176 -62 2
-61 2 0 92 c0 50 1 282 3 516 l2 425 28 -7 c15 -4 42 -8 59 -8z m690 -567 c-3
-8 -6 -5 -6 6 -1 11 2 17 5 13 3 -3 4 -12 1 -19z m3 -214 c0 -8 -7 -14 -15
-14 -17 0 -18 2 -9 24 7 18 24 12 24 -10z m-1289 -381 c38 -31 69 -61 69 -67
0 -22 -43 -96 -55 -96 -18 0 -162 116 -175 141 -9 15 -5 21 18 33 16 8 34 22
41 30 8 9 18 16 23 16 5 0 41 -26 79 -57z m-3653 15 c26 -17 49 -33 51 -35 12
-10 -144 -143 -168 -143 -5 0 -12 9 -16 19 -3 11 -17 35 -30 54 l-23 35 22 21
c19 18 104 78 114 80 2 1 24 -13 50 -31z m-535 -43 c116 -30 246 -144 307
-268 28 -57 34 -81 38 -161 5 -106 -7 -155 -66 -269 -43 -83 -109 -144 -210
-194 -64 -32 -85 -37 -160 -41 -155 -7 -264 30 -362 124 -61 58 -99 120 -130
210 -27 79 -27 214 0 291 48 138 169 254 314 305 64 22 191 23 269 3z m4872 5
c64 -14 174 -80 230 -136 92 -94 135 -199 135 -337 0 -173 -84 -308 -262 -420
-72 -45 -233 -60 -341 -32 -86 22 -149 58 -221 126 -76 71 -110 135 -134 250
-21 99 -8 182 42 284 66 133 172 225 297 259 62 17 195 20 254 6z m-1318 -316
c-3 -3 -12 -4 -19 -1 -8 3 -5 6 6 6 11 1 17 -2 13 -5z m-382 -214 c-3 -5 -12
-10 -18 -10 -7 0 -6 4 3 10 19 12 23 12 15 0z m-2495 -140 c74 -34 209 -99
300 -143 91 -43 192 -90 225 -103 33 -12 116 -48 185 -79 69 -32 166 -74 215
-95 219 -92 331 -142 349 -155 19 -14 19 -17 2 -70 -16 -53 -18 -54 -39 -41
-12 8 -89 41 -172 74 -82 33 -201 82 -262 110 -62 28 -168 74 -235 103 -68 28
-209 91 -315 140 -106 49 -195 89 -198 89 -20 0 -265 125 -261 134 3 6 13 37
22 69 15 50 19 56 33 44 9 -8 77 -42 151 -77z m2322 74 c-18 -8 -38 -11 -45
-7 -7 5 1 10 23 14 54 10 58 9 22 -7z m1151 -61 c28 -52 47 -38 -198 -150 -77
-36 -205 -94 -285 -130 -80 -36 -190 -85 -245 -110 -102 -46 -382 -165 -600
-255 -66 -27 -125 -51 -131 -54 -6 -3 -15 14 -21 38 -6 24 -13 50 -17 58 -8
19 27 40 174 100 63 26 219 94 345 150 127 56 271 119 320 140 50 21 153 68
230 105 77 37 173 80 213 96 40 16 99 42 130 58 57 29 57 29 63 7 3 -11 13
-36 22 -53z m-1227 58 c-4 -5 -3 -11 1 -14 5 -2 3 -2 -4 -1 -6 2 -14 -2 -16
-9 -3 -9 -8 -9 -18 1 -11 10 -10 12 4 12 9 0 17 5 17 10 0 6 5 10 11 10 5 0 8
-4 5 -9z m-71 -41 c-8 -13 -54 -18 -49 -6 2 6 15 12 29 12 14 1 23 -2 20 -6z
m-72 -17 c-7 -2 -19 -2 -25 0 -7 3 -2 5 12 5 14 0 19 -2 13 -5z m-386 -540
c107 -49 157 -206 100 -314 -69 -130 -255 -147 -345 -31 -83 107 -65 246 44
328 58 45 128 51 201 17z m1491 -38 c-2 -1 -12 -7 -24 -13 -15 -8 -21 -8 -21
1 0 7 11 13 24 13 14 1 23 1 21 -1z m-58 -25 c0 -5 -4 -10 -9 -10 -6 0 -13 5
-16 10 -3 6 1 10 9 10 9 0 16 -4 16 -10z m-96 -25 c-4 -8 -1 -15 5 -15 6 0 11
5 11 12 0 6 3 8 6 5 4 -3 15 -2 25 4 11 5 19 7 19 5 0 -3 -21 -17 -47 -31 -27
-14 -58 -32 -70 -41 -13 -9 -23 -12 -23 -6 0 5 7 13 16 16 8 3 12 11 8 17 -4
7 -3 9 4 6 14 -9 43 3 36 14 -3 5 -2 14 1 19 9 15 15 12 9 -5z m-109 -85 c-3
-5 -12 -10 -18 -10 -7 0 -6 4 3 10 19 12 23 12 15 0z m-183 -72 c5 -14 -50
-42 -103 -53 -19 -4 -40 -12 -47 -18 -7 -5 -15 -7 -19 -4 -3 4 8 13 26 20 17
7 28 16 24 20 -3 4 12 7 35 7 23 0 42 5 42 10 0 6 3 9 8 9 19 -3 25 2 12 11
-13 8 -13 10 2 10 9 0 18 -6 20 -12z m45 6 c-3 -3 -12 -4 -19 -1 -8 3 -5 6 6
6 11 1 17 -2 13 -5z m-827 -224 c0 -5 -5 -10 -11 -10 -5 0 -7 5 -4 10 3 6 8
10 11 10 2 0 4 -4 4 -10z m2040 -60 c0 -5 -4 -10 -10 -10 -5 0 -10 5 -10 10 0
6 5 10 10 10 6 0 10 -4 10 -10z m-3340 -170 c0 -5 -4 -10 -10 -10 -5 0 -10 5
-10 10 0 6 5 10 10 10 6 0 10 -4 10 -10z m2585 -30 c3 -5 1 -10 -4 -10 -6 0
-11 5 -11 10 0 6 2 10 4 10 3 0 8 -4 11 -10z m-1365 -200 c0 -5 -2 -10 -4 -10
-3 0 -8 5 -11 10 -3 6 -1 10 4 10 6 0 11 -4 11 -10z"/>
<path d="M2424 7651 c-2 -2 -4 -107 -4 -232 l0 -227 172 0 c95 0 214 -4 266
-7 l94 -8 -8 24 c-4 13 -6 119 -5 235 l2 212 -113 7 c-111 7 -395 4 -404 -4z
m421 -103 c1 -2 5 -13 9 -24 14 -45 -10 -52 -184 -53 l-161 -1 3 38 3 37 65 5
c64 6 260 4 265 -2z m-3 -193 c4 -16 6 -35 4 -42 -3 -8 -55 -11 -170 -12 -180
-1 -172 -4 -160 58 l6 31 156 -3 156 -2 8 -30z"/>
<path d="M7513 7676 c-28 -24 -88 -39 -195 -52 -64 -7 -67 -12 -43 -71 10 -24
15 -70 15 -140 0 -92 -3 -110 -26 -155 -16 -31 -22 -54 -16 -60 5 -5 64 -19
131 -31 117 -22 122 -24 141 -55 11 -17 25 -32 31 -32 22 0 49 22 49 40 0 10
4 21 8 24 4 2 65 12 135 22 144 20 145 21 110 106 -14 34 -18 69 -16 163 0 66
3 134 5 150 l3 30 -110 23 c-60 13 -126 32 -146 43 -45 24 -42 24 -76 -5z m9
-127 c2 -39 1 -72 0 -74 -2 -2 -25 12 -52 31 -26 18 -64 41 -84 49 -20 8 -36
20 -36 25 0 12 58 22 101 18 l34 -4 -30 -13 c-17 -8 -25 -15 -17 -18 21 -8 42
5 52 32 17 44 28 27 32 -46z m231 42 c17 -17 -9 -43 -84 -80 l-79 -39 0 52 c0
93 1 93 83 84 40 -5 75 -12 80 -17z m-315 -140 c37 -19 56 -41 34 -41 -4 0
-20 -12 -36 -27 -36 -34 -78 -63 -90 -63 -6 0 -5 5 2 12 7 7 12 43 12 92 0 75
1 78 18 64 9 -9 36 -25 60 -37z m333 -4 c-1 -23 2 -61 7 -85 6 -26 6 -42 0
-42 -11 0 -157 93 -157 100 0 7 143 76 148 72 3 -1 4 -22 2 -45z m-235 -222
c-7 -19 -40 -19 -127 1 -72 16 -85 28 -46 43 48 19 94 42 127 67 l35 25 8 -61
c5 -33 6 -67 3 -75z m99 78 c-3 -7 -8 -21 -11 -30 -5 -16 -4 -16 10 1 8 10 17
23 18 28 4 11 112 -34 122 -50 7 -12 -7 -18 -84 -32 -30 -6 -63 -13 -72 -16
-16 -5 -18 3 -18 78 l1 83 20 -24 c11 -13 17 -30 14 -38z"/>
<path d="M7620 7582 c0 -12 19 -26 26 -19 2 2 -2 10 -11 17 -9 8 -15 8 -15 2z"/>
<path d="M7485 7260 c20 -23 29 -21 19 4 -3 9 -13 16 -22 16 -13 0 -12 -3 3
-20z"/>
<path d="M4133 6730 c-47 -28 -57 -52 -39 -94 23 -55 104 -84 157 -56 21 12
49 60 49 86 0 9 -15 31 -34 50 -40 40 -83 45 -133 14z"/>
<path d="M3875 6715 c-43 -42 -31 -112 24 -135 25 -10 34 -9 59 5 31 19 62 63
62 88 0 24 -58 67 -91 67 -18 0 -39 -10 -54 -25z"/>
<path d="M4391 6714 c-38 -48 -21 -114 36 -143 31 -16 69 1 93 41 27 45 25 64
-9 99 -39 39 -91 40 -120 3z"/>
<path d="M6061 6707 c-16 -20 -3 -27 49 -27 51 0 61 5 53 26 -7 18 -87 19
-102 1z"/>
<path d="M6259 6689 c-10 -6 -4 -9 19 -9 17 0 32 2 32 4 0 9 -39 13 -51 5z"/>
<path d="M4934 6506 c-50 -13 -119 -38 -155 -56 -89 -45 -183 -143 -234 -244
-39 -78 -40 -81 -40 -185 0 -99 2 -110 33 -176 18 -38 43 -80 54 -92 20 -21
20 -26 8 -80 -7 -32 -25 -98 -41 -146 -38 -117 -38 -127 4 -127 36 1 78 15
258 88 70 29 134 52 142 52 8 0 30 -6 49 -14 52 -22 173 -30 248 -16 88 16
241 81 306 130 67 50 148 172 176 263 46 154 0 319 -125 439 -74 72 -137 108
-257 149 -80 26 -113 32 -215 35 -103 4 -133 1 -211 -20z m336 -140 c148 -32
257 -112 315 -230 46 -94 36 -210 -25 -294 -33 -47 -120 -108 -200 -141 -76
-32 -251 -41 -348 -17 l-67 16 -90 -45 c-90 -46 -115 -53 -115 -35 0 5 10 44
21 87 l21 77 -56 50 c-66 60 -86 103 -86 189 0 154 143 299 336 341 89 19 211
19 294 2z"/>
<path d="M5105 6108 c-43 -23 -65 -52 -65 -82 1 -47 49 -96 95 -96 24 0 85 64
85 89 0 34 -26 76 -55 89 -31 14 -34 14 -60 0z"/>
<path d="M4805 6085 c-31 -30 -33 -82 -4 -119 44 -56 139 -20 139 55 0 41 -9
58 -41 74 -40 21 -66 19 -94 -10z"/>
<path d="M5329 6081 c-37 -37 -37 -72 -1 -110 40 -44 71 -48 104 -14 42 43 46
82 13 121 -35 42 -76 43 -116 3z"/>
<path d="M4338 4853 c-81 -12 -114 -134 -57 -207 54 -69 198 -29 215 61 10 53
-11 110 -49 133 -31 19 -52 22 -109 13z"/>
<path d="M4716 4849 c-46 -7 -73 -35 -82 -85 -16 -86 31 -154 107 -154 83 0
129 45 129 126 0 92 -52 130 -154 113z"/>
<path d="M5484 4852 c-67 -7 -113 -101 -84 -172 21 -51 63 -74 122 -67 84 10
130 77 108 157 -17 64 -67 91 -146 82z"/>
<path d="M6210 4847 c-85 -30 -93 -179 -11 -221 85 -44 191 15 191 107 0 44
-31 103 -58 111 -45 13 -90 14 -122 3z"/>
<path d="M3909 4811 c-31 -31 -39 -46 -39 -76 0 -86 72 -139 157 -116 71 19
104 83 83 160 -14 53 -41 71 -108 71 -50 0 -58 -3 -93 -39z"/>
<path d="M5048 4821 c-31 -27 -33 -34 -33 -91 0 -57 2 -64 33 -91 67 -60 178
-28 201 58 13 48 4 88 -29 123 -25 26 -35 30 -84 30 -47 0 -61 -4 -88 -29z"/>
<path d="M5810 4830 c-42 -42 -51 -108 -25 -165 37 -77 169 -73 211 7 25 47
14 125 -20 155 -37 32 -136 33 -166 3z"/>
<path d="M3924 4461 c-63 -38 -69 -135 -13 -191 26 -26 38 -30 84 -30 46 0 58
4 83 30 44 44 50 94 19 158 -25 51 -115 68 -173 33z"/>
<path d="M4303 4460 c-42 -25 -59 -79 -44 -137 15 -55 51 -83 108 -83 105 0
159 79 119 175 -26 62 -118 85 -183 45z"/>
<path d="M4688 4465 c-38 -21 -48 -45 -48 -110 0 -49 4 -60 29 -86 25 -25 37
-29 81 -29 66 0 105 26 121 81 14 47 1 105 -31 134 -27 25 -116 31 -152 10z"/>
<path d="M5072 4465 c-66 -29 -81 -139 -27 -195 54 -57 154 -45 195 22 24 40
25 65 3 119 -25 63 -97 86 -171 54z"/>
<path d="M5452 4465 c-69 -30 -82 -144 -22 -197 25 -23 40 -28 84 -28 43 0 58
5 80 25 47 44 57 94 29 152 -27 57 -101 78 -171 48z"/>
<path d="M5844 4470 c-44 -14 -66 -42 -72 -96 -9 -87 35 -134 124 -134 39 0
51 5 81 35 34 34 35 38 31 91 -4 41 -11 61 -29 79 -28 28 -89 39 -135 25z"/>
<path d="M6203 4470 c-50 -20 -75 -121 -44 -178 32 -60 140 -68 193 -15 37 38
46 88 22 138 -26 56 -106 81 -171 55z"/>
<path d="M3963 4082 c-17 -2 -43 -15 -57 -29 -49 -49 -46 -105 9 -160 26 -26
41 -33 72 -33 82 0 140 68 123 145 -14 64 -58 87 -147 77z"/>
<path d="M5840 4083 c-8 -3 -27 -17 -42 -31 -33 -30 -37 -75 -12 -128 23 -47
50 -64 106 -64 69 0 109 37 115 107 5 45 2 54 -24 83 -24 27 -38 33 -79 36
-27 2 -56 1 -64 -3z"/>
<path d="M6220 4079 c-48 -10 -70 -41 -70 -98 0 -78 40 -120 114 -121 42 0 53
5 82 34 29 29 34 41 34 80 0 82 -67 126 -160 105z"/>
<path d="M4282 4057 c-67 -71 -14 -197 83 -197 75 0 125 47 125 118 0 35 -6
49 -29 73 -26 26 -36 29 -93 29 -54 0 -68 -4 -86 -23z"/>
<path d="M4946 4073 c-185 -2 -284 -7 -293 -14 -18 -15 -17 -113 2 -149 8 -16
23 -31 32 -33 38 -11 878 -4 892 6 34 28 46 146 17 176 -19 18 -122 20 -650
14z"/>
<path d="M2420 3333 l0 -218 223 -2 c122 -1 238 -5 257 -8 l36 -6 -3 213 c-2
117 -3 219 -3 226 0 9 -58 12 -255 12 l-255 0 0 -217z m409 57 c-2 -41 1 -99
6 -129 l8 -54 -33 6 c-18 4 -93 7 -167 7 l-134 0 8 38 c4 20 7 75 6 122 l-2
86 155 -1 155 0 -2 -75z"/>
<path d="M2588 3374 c-10 -21 -9 -31 3 -52 30 -53 150 -51 180 4 13 24 12 28
-14 50 -23 20 -39 24 -93 24 -60 0 -65 -2 -76 -26z"/>
<path d="M7470 3544 c-8 -3 -22 -8 -30 -11 -8 -3 -32 -5 -52 -4 -33 2 -39 -1
-49 -26 -7 -15 -25 -55 -41 -87 -35 -74 -35 -99 2 -161 16 -27 30 -60 30 -71
0 -12 8 -31 18 -42 16 -20 29 -21 217 -23 110 0 206 -1 213 0 6 1 12 12 12 26
0 27 29 90 61 137 26 36 25 45 -21 121 -23 38 -40 79 -40 96 0 16 -3 32 -7 34
-12 7 -296 17 -313 11z m107 -60 l142 1 21 -57 c11 -32 25 -60 30 -63 27 -16
-5 -132 -45 -165 -28 -23 -213 -21 -289 4 -50 16 -60 23 -73 54 -24 59 2 180
43 205 8 4 14 16 14 25 0 11 3 13 8 6 5 -8 54 -11 149 -10z"/>
<path d="M7655 3410 c3 -14 7 -53 9 -88 2 -35 6 -65 9 -68 10 -11 29 38 30 80
2 33 -4 48 -26 71 -28 30 -28 30 -22 5z"/>
<path d="M7522 3388 c-19 -19 -15 -92 6 -111 22 -20 63 -22 80 -5 17 17 15 79
-4 106 -17 24 -62 30 -82 10z"/>
</g>
</svg>
